<?xml version="1.0" standalone="no"?>
<!DOCTYPE svg PUBLIC "-//W3C//DTD SVG 20010904//EN"
 "http://www.w3.org/TR/2001/REC-SVG-20010904/DTD/svg10.dtd">
<svg version="1.0" xmlns="http://www.w3.org/2000/svg"
 width="720.000000pt" height="720.000000pt" viewBox="0 0 720.000000 720.000000"
 preserveAspectRatio="xMidYMid meet">
<metadata>
Created by potrace 1.11, written by Peter Selinger 2001-2013
</metadata>
<g transform="translate(0.000000,720.000000) scale(0.100000,-0.100000)"
fill="#000000" stroke="none">
<path d="M0 5430 c0 -973 3 -1770 8 -1770 4 1 18 7 32 15 36 20 39 19 56 -20
12 -28 20 -35 43 -35 16 0 34 -7 42 -16 11 -14 14 -13 26 10 16 31 38 34 52 7
6 -10 20 -18 33 -17 18 1 25 -6 34 -33 6 -19 22 -44 37 -55 25 -18 27 -18 52
-2 14 9 30 27 34 39 5 12 30 45 55 72 26 28 62 73 81 101 18 29 42 58 52 65
10 8 43 41 73 74 50 55 80 82 148 133 13 9 33 27 45 40 11 12 28 22 37 20 8
-1 25 2 37 6 19 6 21 10 10 26 -19 31 6 49 29 21 10 -11 24 -21 31 -21 7 0 13
-7 13 -15 0 -11 13 -15 54 -15 70 0 106 13 56 20 -32 5 -35 8 -37 40 -1 19 -2
41 -2 48 -2 25 -26 6 -31 -24 -7 -40 -35 -43 -48 -5 -9 26 -8 31 9 36 10 4 19
11 19 16 0 6 5 7 10 4 6 -3 10 5 10 19 0 14 4 28 10 31 12 8 13 45 1 45 -15 0
-18 34 -5 65 7 17 13 26 14 20 0 -5 8 3 16 18 16 30 30 28 44 -9 11 -29 26
-31 35 -4 3 11 12 20 18 20 16 0 39 -53 31 -73 -16 -42 38 -38 65 5 10 17 10
23 -4 38 -16 17 -16 21 1 49 18 31 34 40 34 21 0 -5 6 -10 14 -10 7 0 25 -9
40 -21 23 -18 27 -18 31 -5 3 9 7 23 10 32 4 12 14 15 36 12 16 -3 32 -1 35 4
7 11 52 10 59 -2 12 -20 22 -9 28 31 3 22 7 43 10 45 7 7 62 -49 80 -81 9 -16
16 -24 17 -17 0 7 5 10 10 7 6 -4 10 13 10 43 0 62 8 70 37 35 12 -16 22 -22
23 -15 0 7 5 10 10 7 6 -3 10 1 10 10 0 12 5 15 16 11 9 -3 20 -6 25 -6 5 0 7
-17 3 -38 -5 -35 -4 -38 30 -55 35 -16 36 -16 36 4 0 18 -4 20 -25 15 -28 -7
-32 -1 -10 20 11 12 19 13 36 4 29 -16 49 -5 49 26 0 20 4 25 16 20 9 -3 18
-6 20 -6 2 0 4 -7 4 -15 0 -9 9 -15 25 -15 24 0 25 1 19 59 -7 64 8 92 26 47
6 -17 14 -24 25 -20 17 7 30 47 20 63 -6 10 8 16 28 12 5 -1 6 2 4 6 -9 14 21
46 45 47 13 1 28 -4 33 -11 8 -10 16 -10 40 3 29 15 31 14 51 -9 21 -24 23
-46 10 -79 -4 -9 -9 -34 -10 -55 -1 -31 -11 -48 -55 -93 -51 -53 -98 -90 -113
-90 -5 0 -8 7 -8 15 0 9 12 18 30 22 25 4 28 8 19 20 -9 10 -9 20 -1 37 13 29
7 36 -27 36 -13 0 -35 10 -48 22 -16 15 -27 18 -33 12 -19 -19 0 -44 34 -44
17 0 26 -4 20 -8 -14 -9 -24 -61 -13 -68 5 -3 9 -22 10 -42 1 -56 11 -73 54
-88 22 -7 41 -11 44 -9 2 3 5 25 5 50 1 35 5 45 18 45 9 0 20 5 24 11 4 7 25
9 55 7 41 -4 50 -2 54 13 4 11 12 19 20 19 20 0 60 -61 56 -85 -4 -28 -8 -30
-26 -11 -15 15 -19 14 -46 -13 -39 -39 -39 -75 1 -91 17 -7 28 -18 25 -24 -3
-6 -8 -19 -11 -28 -8 -23 -65 -49 -80 -37 -6 5 -9 20 -7 33 7 32 -23 43 -38
13 -17 -31 -28 -37 -76 -37 -30 0 -43 -4 -43 -14 0 -7 -6 -19 -14 -25 -16 -13
-61 18 -71 49 -4 12 -12 17 -22 13 -12 -5 -14 -16 -10 -54 5 -40 3 -47 -11
-44 -42 6 -57 -41 -17 -51 27 -7 32 -23 14 -41 -8 -8 -5 -17 10 -32 27 -27 30
-26 28 6 -2 22 3 28 31 37 27 7 32 13 28 30 -3 12 -2 33 1 46 6 23 7 23 18
-10 14 -42 55 -57 50 -18 -1 13 -6 30 -9 39 -8 18 17 43 36 37 7 -3 18 -27 25
-54 7 -30 12 -39 12 -24 1 20 3 22 11 10 8 -13 10 -13 10 2 0 10 7 15 18 14
14 -2 18 -15 20 -64 2 -40 7 -62 15 -62 16 -1 -23 -30 -40 -30 -8 0 -13 13
-13 34 0 34 -24 71 -40 61 -4 -3 -11 -21 -14 -40 -7 -37 -36 -50 -36 -16 0 10
-7 24 -15 31 -8 7 -15 19 -15 26 0 14 -19 20 -21 7 0 -5 -2 -19 -3 -33 -2 -14
-4 -29 -6 -35 -8 -24 13 -64 36 -69 13 -4 24 -13 24 -20 0 -20 49 -76 66 -76
12 0 12 -4 4 -21 -9 -16 -8 -24 5 -39 9 -10 20 -31 24 -46 4 -16 15 -31 25
-32 15 -3 17 1 11 27 -4 21 -3 31 6 31 8 0 10 12 6 40 -5 38 4 53 18 30 3 -5
15 -10 25 -10 11 0 24 -8 29 -19 6 -10 31 -24 56 -31 25 -7 45 -16 45 -21 0
-14 -21 -22 -32 -11 -15 15 -53 -22 -45 -42 11 -28 -4 -47 -32 -44 -18 2 -27
-2 -29 -14 -2 -13 3 -18 17 -18 12 0 30 -9 41 -20 11 -11 24 -20 29 -20 5 0
16 -11 25 -25 10 -15 26 -25 41 -25 29 0 41 -30 23 -59 -7 -12 -22 -21 -34
-21 -11 0 -29 -9 -39 -20 -10 -11 -26 -20 -37 -20 -10 0 -18 -6 -18 -14 0 -8
-16 -16 -42 -20 -55 -9 -71 -22 -56 -45 9 -14 6 -25 -13 -50 -19 -26 -25 -29
-28 -15 -2 14 -5 14 -12 3 -7 -12 -9 -12 -9 0 0 8 -10 3 -24 -14 -23 -26 -25
-27 -41 -12 -19 20 -19 20 -70 6 -22 -6 -48 -20 -57 -32 l-18 -20 -23 21 c-13
12 -33 22 -44 22 -12 0 -24 6 -26 13 -3 6 -6 0 -6 -15 -1 -16 2 -27 7 -27 45
7 59 -25 17 -41 -14 -5 -25 -14 -25 -20 0 -5 -11 -10 -24 -10 -19 0 -23 4 -19
19 3 10 0 22 -7 26 -7 4 -11 1 -10 -6 4 -28 -12 -60 -27 -55 -8 3 -25 6 -39 6
-14 0 -35 12 -51 30 -32 36 -39 37 -47 5 -7 -26 -39 -35 -51 -15 -8 13 -35 -6
-35 -25 0 -26 -70 -35 -89 -11 -7 8 -26 18 -42 21 -16 4 -34 16 -40 27 l-11
21 -17 -21 c-9 -11 -28 -26 -43 -31 -15 -6 -41 -30 -58 -53 -16 -24 -46 -60
-65 -81 -55 -59 -64 -105 -30 -147 7 -8 15 -54 18 -102 4 -70 2 -88 -10 -92
-25 -10 -10 -40 22 -46 25 -4 31 -11 35 -39 4 -29 11 -36 49 -51 24 -9 53 -29
63 -43 14 -20 29 -27 52 -27 24 0 38 -7 54 -29 12 -17 34 -36 48 -43 27 -13
49 -60 74 -156 7 -29 19 -46 35 -54 22 -10 24 -15 18 -55 -5 -37 -2 -48 17
-68 19 -20 21 -30 15 -62 -5 -21 -9 -58 -10 -83 -1 -25 -5 -52 -9 -61 -4 -9
-1 -21 9 -29 23 -19 18 -57 -10 -76 -35 -23 -31 -40 15 -72 21 -15 39 -31 40
-35 0 -11 -53 -56 -67 -57 -20 0 -23 -15 -11 -47 9 -25 8 -37 -5 -65 -28 -60
-22 -213 11 -250 8 -10 15 -28 16 -40 1 -18 8 -24 36 -28 33 -5 35 -7 38 -48
2 -25 9 -45 17 -48 11 -4 11 -11 3 -29 -8 -18 -7 -28 8 -49 11 -14 26 -28 35
-31 8 -3 33 -21 55 -41 21 -20 49 -40 61 -45 12 -4 30 -21 40 -36 10 -15 33
-41 52 -58 19 -16 39 -35 45 -40 6 -6 23 -18 39 -28 15 -10 27 -26 27 -36 0
-21 30 -51 52 -51 23 0 28 -10 15 -31 -19 -30 11 -52 70 -51 26 1 83 -10 125
-23 43 -14 83 -23 90 -20 7 2 31 6 54 9 51 5 99 29 118 59 8 12 22 54 31 92
23 96 42 134 69 141 15 3 32 22 46 50 12 25 27 47 34 49 6 2 22 6 36 9 25 6
57 45 85 104 20 43 59 43 105 2 l34 -30 25 23 c14 13 39 29 56 36 26 11 27 14
12 22 -9 6 -17 22 -17 36 0 20 4 24 18 18 31 -12 35 -10 49 15 38 73 -22 139
-82 90 -10 -8 -19 -8 -35 0 -12 7 -33 9 -47 5 -34 -8 -44 9 -36 60 3 22 2 37
-2 33 -17 -16 -37 23 -31 61 7 48 -10 66 -54 56 -26 -6 -30 -4 -30 14 0 16 8
23 30 27 16 4 30 12 30 19 0 7 9 10 24 8 16 -3 28 2 38 16 8 11 23 20 34 20
10 1 28 1 39 2 21 1 153 32 220 52 22 6 49 10 59 9 11 -1 26 4 35 11 9 8 54
19 100 26 80 10 105 22 98 46 -2 6 -26 12 -53 15 -27 3 -56 10 -64 15 -8 6
-33 10 -55 11 -47 1 -68 6 -77 18 -3 5 -26 9 -50 9 -54 -1 -64 4 -73 38 -6 24
-4 26 22 24 15 -1 47 -8 71 -14 33 -9 52 -9 77 -1 19 6 40 8 46 4 20 -12 68
-14 74 -3 4 5 1 16 -5 24 -9 11 -6 22 16 50 29 39 57 40 83 3 13 -19 14 -19
33 10 18 28 22 30 46 20 15 -7 31 -15 37 -20 5 -4 27 -8 50 -8 50 0 65 -13 65
-57 0 -33 5 -37 48 -33 14 1 22 -4 22 -14 0 -11 -9 -16 -30 -16 -43 0 -78 -19
-83 -46 -3 -19 -1 -22 8 -14 10 8 15 7 21 -1 4 -7 2 -15 -4 -17 -7 -2 -12 -15
-12 -28 0 -19 5 -24 28 -24 36 0 48 -9 56 -43 5 -20 3 -27 -8 -27 -15 0 -20
-12 -30 -71 -5 -30 -14 -40 -41 -53 -38 -18 -49 -56 -17 -56 15 -1 15 -2 -2
-15 -11 -8 -28 -15 -38 -15 -13 0 -19 -11 -24 -40 -4 -25 -12 -40 -21 -40 -20
0 -84 -45 -76 -53 3 -4 1 -7 -5 -7 -6 0 -14 5 -17 10 -12 19 -55 10 -87 -19
-27 -24 -31 -32 -20 -42 22 -23 14 -47 -18 -54 -34 -8 -38 -24 -12 -48 27 -24
51 -21 58 8 7 28 41 52 55 38 4 -4 4 -28 -2 -52 -8 -36 -7 -47 5 -59 13 -13
19 -13 47 -2 29 12 34 12 48 -6 9 -10 22 -20 28 -21 6 -1 23 -4 39 -7 26 -5
63 -39 64 -58 0 -5 5 -8 11 -8 5 0 7 5 4 10 -8 13 31 13 55 0 15 -8 32 -48 34
-83 1 -11 59 -41 119 -62 50 -18 61 -39 26 -50 -21 -7 -21 -8 6 -32 42 -39
106 -87 151 -112 22 -13 45 -34 50 -50 8 -19 22 -30 52 -39 44 -13 53 -31 27
-52 -13 -11 -12 -16 10 -36 14 -13 44 -27 66 -30 23 -4 44 -14 49 -25 6 -9 17
-24 25 -33 9 -9 19 -35 23 -58 7 -42 8 -43 57 -50 27 -4 52 -14 57 -22 4 -8
21 -17 37 -21 16 -3 37 -15 47 -26 17 -19 38 -19 873 -18 623 0 850 3 834 11
-15 7 -23 20 -23 35 0 14 -13 38 -30 55 -16 16 -30 34 -30 39 0 5 -11 9 -25 9
-18 0 -23 4 -19 15 5 11 -1 15 -19 15 -14 0 -29 5 -32 10 -4 6 -21 17 -40 24
-64 27 -57 48 66 194 10 13 19 30 19 38 0 8 9 23 20 34 11 11 20 27 20 35 0 8
4 15 10 15 5 0 15 20 21 45 6 24 17 50 25 56 8 6 14 17 14 24 0 7 11 20 25 29
14 9 25 26 26 39 l0 22 16 -23 c15 -22 53 -31 53 -13 0 5 3 16 6 24 3 9 -4 25
-17 38 -25 25 -31 81 -12 100 21 21 48 -38 48 -104 0 -75 18 -89 57 -46 16 17
28 37 28 45 0 20 18 54 29 54 12 0 23 -63 15 -84 -3 -9 -15 -16 -25 -16 -14 0
-19 -7 -19 -30 0 -16 5 -31 10 -31 6 -1 14 -2 20 -3 5 0 15 -7 22 -13 16 -17
33 -16 52 2 14 15 17 95 5 145 -3 9 6 16 26 20 17 3 43 14 58 24 37 25 52 10
52 -50 0 -39 3 -44 23 -44 18 0 22 5 22 32 0 17 3 28 7 25 3 -4 17 11 30 32
26 44 21 72 -17 104 -20 16 -19 44 1 32 5 -4 9 12 9 34 0 23 -4 41 -10 41 -5
0 -10 9 -10 20 0 33 -50 46 -102 25 -20 -8 -35 30 -19 49 9 10 8 15 -5 20 -9
3 -19 4 -22 2 -4 -2 -15 6 -24 19 -17 22 -17 23 15 39 21 10 26 16 14 16 -10
0 -43 12 -74 26 -44 21 -59 24 -78 16 -18 -9 -26 -7 -39 7 -14 15 -15 26 -6
66 6 25 21 72 34 103 13 32 29 82 36 112 7 30 30 86 51 123 22 38 39 74 39 81
0 6 9 28 20 49 11 20 20 43 20 49 1 7 9 31 20 53 11 22 19 46 20 52 0 7 16 59
35 115 19 57 41 135 49 173 36 163 59 229 135 380 l51 100 0 2233 0 2232
-3600 0 -3600 0 0 -1770z m2972 1667 c20 -9 42 -25 47 -34 10 -17 12 -16 31 6
29 34 50 22 43 -27 -4 -30 -2 -40 11 -45 9 -4 16 -2 16 3 0 13 40 13 60 0 10
-6 22 -5 36 5 18 12 23 11 38 -6 9 -11 30 -25 46 -30 16 -6 35 -24 43 -41 l14
-30 11 31 c21 59 87 21 80 -46 -2 -23 1 -29 20 -31 17 -3 25 2 29 18 3 13 12
20 22 18 21 -5 18 -58 -4 -74 -21 -16 -19 -44 4 -44 11 0 21 6 24 13 6 18 44
-18 50 -48 2 -14 -3 -34 -11 -46 -13 -19 -13 -23 2 -37 17 -17 16 -19 20 38 1
20 46 24 71 6 19 -14 19 -15 2 -45 -18 -30 -8 -52 12 -27 9 11 9 15 -1 19 -7
3 -3 6 10 6 13 1 36 -12 53 -29 23 -23 28 -35 23 -55 -3 -14 -2 -25 2 -26 5 0
17 -2 27 -4 13 -2 19 5 24 26 4 20 12 29 24 29 21 0 26 -26 7 -32 -6 -2 5 -15
26 -28 22 -13 43 -36 48 -52 9 -26 14 -29 38 -24 18 3 33 0 40 -9 7 -8 25 -15
41 -15 27 0 43 -13 44 -35 0 -5 17 -9 38 -9 20 1 37 -3 37 -8 0 -18 26 -36 40
-28 9 5 23 1 38 -10 22 -18 27 -18 59 -5 50 21 63 19 63 -10 0 -18 7 -26 26
-31 29 -7 104 12 104 26 0 19 58 10 94 -15 20 -14 43 -25 49 -25 7 0 18 -5 25
-12 7 -7 12 -8 12 -3 0 15 119 18 136 4 17 -14 23 -10 29 21 7 34 22 39 60 21
29 -14 34 -21 35 -51 0 -30 5 -37 30 -47 21 -8 30 -8 33 1 3 8 12 8 33 1 25
-9 30 -17 34 -55 4 -35 7 -40 12 -23 12 43 37 39 84 -12 24 -26 41 -51 39 -56
-3 -4 6 -16 20 -25 20 -13 25 -25 25 -56 0 -22 5 -49 12 -61 7 -12 11 -32 9
-44 -2 -17 4 -22 26 -25 22 -2 29 -9 31 -31 2 -15 8 -25 13 -21 6 3 18 -1 27
-9 29 -26 89 -56 126 -62 19 -4 40 -13 47 -21 13 -16 40 -5 73 31 27 30 58 20
80 -27 14 -28 21 -34 46 -32 17 1 28 -3 27 -9 -1 -6 8 -16 20 -21 17 -8 23
-20 25 -51 3 -40 3 -40 41 -38 32 2 39 -1 47 -23 8 -21 15 -25 35 -20 27 7 46
-15 38 -45 -7 -25 -10 -24 -40 11 -30 37 -56 38 -71 5 -10 -22 -9 -27 13 -41
29 -19 35 -74 10 -94 -20 -17 -10 -30 23 -30 15 0 35 -7 45 -14 16 -13 16 -15
-13 -24 -39 -14 -47 -37 -26 -72 11 -20 13 -31 5 -35 -12 -8 -24 1 -24 17 0
23 -25 18 -35 -6 -7 -20 -17 -26 -39 -26 -42 0 -47 -32 -11 -70 l28 -30 -19
-39 c-17 -36 -17 -70 0 -72 3 0 14 -2 24 -4 12 -2 17 3 17 21 0 15 6 24 16 24
12 0 15 -6 10 -22 -3 -13 -6 -37 -6 -55 0 -25 -4 -31 -15 -27 -9 4 -15 0 -16
-7 0 -8 -5 -5 -10 6 -9 19 -9 18 -5 -3 2 -12 0 -39 -6 -59 -9 -33 -8 -39 11
-54 16 -13 21 -29 21 -63 0 -44 1 -46 25 -40 14 3 25 2 25 -4 0 -5 -9 -12 -21
-15 -12 -3 -18 -10 -15 -15 3 -5 -3 -21 -14 -35 l-20 -25 25 -6 c20 -5 25 -13
25 -40 0 -28 -5 -35 -25 -40 -27 -7 -30 -17 -15 -47 15 -27 -4 -59 -35 -59
-13 0 -36 6 -52 14 -46 23 -93 35 -98 26 -3 -5 4 -14 15 -20 15 -8 20 -21 20
-50 0 -30 4 -40 16 -40 8 0 13 -4 9 -9 -3 -6 -17 -4 -33 5 -15 7 -32 14 -39
14 -19 0 -25 18 -12 39 11 16 9 24 -12 49 -13 17 -32 43 -43 57 -14 21 -24 26
-45 22 -30 -6 -61 8 -61 28 0 8 -20 23 -44 34 -24 10 -54 29 -66 41 -13 13
-29 20 -41 17 -10 -3 -22 -1 -25 5 -3 5 -21 8 -39 6 -19 -1 -37 1 -41 5 -12
12 -52 8 -57 -5 -3 -10 -9 -10 -26 0 -27 16 -31 15 -31 -3 0 -8 7 -15 14 -15
12 0 13 -6 5 -30 -6 -16 -15 -30 -20 -30 -4 0 -6 7 -3 15 14 35 -55 61 -95 36
-19 -12 -69 15 -85 48 -14 25 -18 27 -80 25 -77 -1 -157 15 -221 46 -30 15
-53 20 -68 15 -12 -4 -55 -9 -95 -10 -40 -2 -80 -9 -87 -15 -15 -12 -59 -4
-50 9 5 9 -66 -2 -83 -13 -7 -4 -19 0 -28 9 -19 18 -50 12 -73 -16 -14 -16
-21 -17 -56 -8 -73 19 -80 19 -98 5 -25 -19 -14 -56 16 -56 24 0 14 -15 -25
-34 -14 -7 -24 -21 -25 -36 0 -14 -4 -40 -8 -57 -9 -39 6 -44 25 -8 16 29 36
19 35 -17 -1 -35 -33 -88 -53 -88 -9 0 -23 -9 -30 -20 -7 -11 -21 -20 -32 -20
-11 0 -20 -7 -20 -16 0 -8 5 -12 10 -9 6 3 10 2 10 -4 0 -6 7 -8 15 -5 9 4 15
1 15 -7 0 -22 -14 -36 -31 -34 -12 2 -18 -7 -23 -36 -3 -21 -12 -42 -20 -46
-22 -13 -38 -52 -30 -75 5 -15 0 -26 -17 -40 -18 -15 -21 -21 -10 -25 7 -3 21
-13 30 -22 16 -16 21 -12 80 66 60 81 115 127 158 135 21 3 23 1 23 -36 0 -17
-9 -27 -30 -36 -16 -7 -30 -20 -30 -29 0 -9 -15 -23 -33 -32 -17 -8 -38 -29
-46 -45 -8 -16 -21 -34 -29 -40 -16 -12 -13 -45 4 -51 7 -2 14 7 18 20 8 33
34 30 42 -5 3 -16 12 -32 20 -35 9 -3 11 -14 7 -34 -5 -26 -2 -30 25 -35 27
-6 30 -10 26 -33 -8 -39 18 -59 43 -32 10 10 32 21 48 23 27 3 30 0 33 -30 2
-20 8 -32 15 -29 7 2 11 14 9 25 -2 13 2 22 9 22 10 0 10 3 1 12 -7 7 -12 19
-12 27 0 12 3 11 18 -2 10 -10 31 -17 47 -17 15 0 34 -8 42 -17 12 -16 13 -15
11 13 -2 25 5 39 32 65 89 85 132 119 148 119 16 -1 16 -2 1 -13 -14 -10 -14
-14 -3 -25 15 -13 64 -17 64 -4 0 5 16 16 36 26 33 15 38 15 54 1 66 -59 206
-93 256 -60 17 11 30 13 36 7 6 -6 27 -3 59 9 27 10 49 17 49 14 0 -3 9 -1 21
5 11 7 28 8 37 4 9 -4 41 -13 71 -18 48 -10 56 -15 62 -39 8 -32 35 -56 60
-57 9 0 22 -7 29 -15 7 -8 19 -15 28 -15 8 0 21 -8 28 -17 12 -17 13 -17 14 3
0 33 31 40 55 12 11 -13 26 -23 33 -22 6 1 17 2 22 3 18 2 11 46 -10 59 -28
17 -25 29 10 35 27 6 30 10 30 46 0 33 -5 43 -32 62 -17 13 -54 44 -81 70 -34
32 -66 52 -108 65 -32 10 -59 24 -59 29 0 6 -27 24 -60 39 -48 23 -60 33 -60
52 0 28 8 29 53 11 18 -8 52 -12 77 -10 30 2 61 -3 92 -17 25 -11 64 -23 85
-26 21 -3 42 -12 46 -20 4 -8 23 -14 41 -14 19 0 39 -6 45 -14 7 -8 22 -12 34
-10 54 13 71 10 77 -16 5 -22 42 -48 93 -64 9 -3 21 -16 26 -29 5 -13 25 -34
44 -47 38 -26 57 -57 57 -93 1 -28 33 -67 55 -67 12 0 15 6 10 20 -3 10 -1 29
5 41 9 15 9 24 1 32 -16 16 -13 37 4 31 8 -4 15 -15 15 -26 0 -14 5 -18 18
-14 9 2 27 7 40 11 25 7 28 -2 7 -29 -13 -17 -13 -23 1 -44 17 -26 17 -27 -28
-53 -13 -7 -18 -22 -18 -53 0 -36 -5 -47 -26 -61 -17 -11 -35 -14 -55 -10 -18
4 -29 3 -29 -4 0 -6 4 -11 8 -11 5 0 14 -17 20 -37 12 -38 5 -52 -25 -53 -17
0 -16 -30 1 -49 23 -26 9 -68 -28 -81 -29 -10 -30 -12 -12 -25 22 -16 15 -48
-9 -39 -8 3 -12 10 -9 15 3 5 -4 9 -15 9 -24 0 -27 -20 -9 -53 7 -12 13 -26
14 -32 16 -71 16 -75 1 -75 -15 0 -30 -48 -19 -65 3 -5 8 -26 9 -46 4 -34 1
-38 -25 -44 -23 -5 -29 -10 -25 -26 3 -10 9 -19 14 -19 5 0 9 -9 9 -20 0 -11
-4 -20 -9 -20 -5 0 -11 -15 -14 -32 -11 -67 -20 -93 -34 -104 -14 -12 -53
-112 -53 -137 0 -8 -8 -22 -19 -31 -10 -9 -21 -35 -25 -56 -3 -22 -11 -40 -16
-40 -6 0 -10 -11 -10 -23 0 -14 -13 -35 -30 -50 -18 -17 -27 -33 -24 -42 4 -9
-1 -24 -11 -35 -12 -13 -15 -27 -11 -45 5 -18 2 -27 -9 -31 -8 -4 -18 -24 -21
-46 -4 -22 -13 -42 -20 -45 -7 -3 -21 -26 -30 -51 -10 -26 -23 -54 -29 -62
-13 -17 -47 -75 -95 -165 -18 -33 -45 -75 -61 -93 -16 -18 -29 -39 -29 -46 0
-8 -11 -17 -25 -20 -16 -4 -25 -13 -25 -25 0 -28 -11 -51 -24 -51 -20 -1 -76
-59 -76 -79 0 -11 -5 -23 -10 -26 -6 -4 -8 -10 -5 -15 8 -13 -69 -32 -99 -24
-15 3 -34 -1 -50 -11 -14 -10 -26 -13 -26 -9 0 5 -9 -5 -19 -23 -13 -20 -30
-33 -50 -37 -17 -3 -44 -9 -61 -12 -21 -4 -30 -11 -30 -25 0 -10 -3 -19 -8
-19 -4 0 -24 -14 -44 -31 -33 -27 -36 -32 -25 -51 10 -17 9 -22 -2 -26 -7 -2
-22 -13 -32 -23 -22 -22 -27 -15 -30 37 -2 22 -9 46 -16 52 -7 7 -13 8 -13 3
0 -14 -65 -81 -79 -81 -6 0 -11 6 -11 13 0 6 -7 20 -15 30 -13 18 -14 17 -29
-10 -9 -19 -27 -33 -50 -40 -33 -10 -36 -9 -36 8 0 10 -4 19 -10 19 -8 0 -13
-36 -9 -66 2 -15 -29 -24 -78 -24 -51 0 -53 1 -53 28 0 16 8 32 20 40 11 7 20
23 20 37 0 14 7 36 15 49 9 13 19 43 23 67 7 39 11 44 34 44 42 1 58 22 58 76
0 30 4 49 11 49 8 0 9 11 5 33 -4 17 -9 41 -11 51 -3 11 -11 24 -20 28 -8 5
-15 18 -15 28 0 20 -36 64 -117 142 -24 23 -43 49 -43 58 0 19 -36 38 -62 34
-11 -1 -18 4 -19 14 0 15 -1 15 -7 2 -5 -11 -23 -16 -62 -17 -51 -1 -58 -4
-91 -42 -36 -40 -62 -51 -74 -31 -11 17 -25 11 -37 -15 -6 -14 -15 -25 -20
-25 -5 0 -6 5 -3 10 4 6 -8 25 -27 43 -18 17 -31 35 -30 39 3 12 -62 -4 -80
-19 -14 -13 -19 -12 -37 6 -16 16 -21 17 -21 6 0 -16 -37 -29 -67 -23 -13 2
-22 21 -33 68 -17 78 -39 100 -90 93 -19 -3 -44 -14 -56 -24 -24 -23 -38 -24
-57 -5 -13 13 -17 10 -32 -24 -14 -31 -23 -39 -39 -36 -12 2 -30 0 -41 -4 -24
-9 -65 19 -65 44 0 19 -34 38 -46 26 -24 -24 -108 -59 -120 -49 -11 9 -7 48
11 92 4 9 1 31 -8 50 -29 63 -30 75 -4 92 33 21 26 59 -9 52 -13 -2 -32 2 -41
9 -24 18 -33 17 -33 -3 0 -9 -3 -13 -7 -10 -3 4 -12 2 -19 -4 -13 -10 -34 -5
-34 9 0 4 13 13 28 20 26 11 28 16 23 50 -5 30 -11 38 -31 40 -14 2 -29 10
-33 18 -4 8 -15 14 -23 14 -8 0 -21 18 -30 40 -11 27 -22 40 -35 40 -10 0 -19
5 -19 11 0 6 -7 9 -15 6 -8 -4 -17 -2 -20 3 -4 6 -2 10 4 10 5 0 16 7 24 15
17 16 11 55 -8 55 -6 0 -17 12 -24 26 -9 21 -9 30 1 41 10 13 8 19 -12 35 -15
12 -26 15 -28 9 -2 -6 -8 -11 -13 -11 -18 0 -8 23 22 52 l31 30 17 -28 c29
-49 38 -78 34 -104 -3 -23 0 -26 32 -26 19 0 37 6 39 13 3 7 -1 13 -8 13 -18
0 -25 20 -19 53 6 30 35 43 78 35 27 -6 31 8 26 81 -2 25 3 37 20 49 18 13 19
16 6 23 -20 12 -50 0 -43 -17 7 -17 -7 -26 -28 -18 -9 3 -16 17 -16 30 0 18 9
28 40 41 22 10 40 21 40 26 0 12 22 32 45 41 18 7 19 8 3 20 -12 9 -15 20 -9
46 6 30 11 35 32 32 19 -2 29 4 37 23 7 14 24 30 38 35 26 10 26 11 8 33 -25
29 -37 37 -49 34 -7 -3 -50 64 -42 68 1 0 14 6 30 13 29 12 34 31 16 63 -9 19
-12 19 -27 6 -9 -9 -29 -19 -44 -22 -27 -7 -34 1 -28 30 1 6 3 24 3 40 2 36
32 43 31 8 0 -19 3 -22 25 -16 14 3 28 8 31 10 6 5 -43 93 -52 93 -5 0 -8 12
-8 26 0 19 4 25 15 20 8 -3 21 -9 29 -12 9 -3 19 4 27 18 6 13 18 27 25 31 8
4 14 15 14 22 0 8 6 15 14 15 10 0 14 10 14 30 -1 17 6 38 15 48 10 10 17 33
17 50 0 24 4 30 15 26 9 -4 15 0 15 9 0 9 6 20 14 24 19 11 22 32 8 66 -17 41
-15 47 18 53 38 8 52 26 48 61 -2 20 -9 29 -25 31 -22 3 -34 32 -13 32 15 0
80 64 80 79 0 8 7 22 16 32 21 23 11 49 -17 49 -19 0 -20 4 -15 34 4 18 2 45
-3 59 -7 17 -7 28 -1 32 6 4 10 24 10 45 0 21 5 40 12 42 9 3 8 15 -4 47 -16
40 -16 42 3 54 10 6 19 20 19 29 0 10 8 26 18 36 10 10 22 26 25 36 4 9 11 15
16 12 5 -3 15 1 22 10 18 22 -1 50 -32 46 -14 -2 -34 6 -46 18 -12 11 -27 20
-33 20 -5 0 -10 11 -10 24 0 31 -14 40 -39 26 -24 -12 -37 3 -33 40 2 14 -4
41 -12 60 -8 19 -15 28 -16 19 0 -9 -8 -27 -19 -40 -16 -20 -21 -21 -35 -10
-9 7 -16 25 -16 40 0 21 -8 29 -40 43 -28 12 -40 23 -40 37 0 12 -6 22 -12 23
-41 4 -98 28 -98 40 0 5 -5 6 -12 2 -6 -4 -9 -3 -5 2 14 24 -51 69 -96 66 -18
-2 -30 3 -34 15 -8 23 -93 103 -109 103 -6 0 -14 6 -17 14 -5 12 -37 20 -119
30 -14 1 -34 10 -43 19 -9 10 -27 17 -41 17 -14 0 -24 6 -24 14 0 7 -7 19 -15
26 -8 7 -15 21 -15 30 0 25 -21 31 -42 13 -11 -10 -26 -13 -45 -8 -25 6 -60
49 -112 142 -4 8 -17 9 -41 4 l-35 -8 2 45 c2 54 10 75 23 67 6 -4 10 6 10 24
0 34 -9 44 -30 31 -8 -5 -22 -3 -36 6 -15 11 -24 12 -29 4 -10 -16 2 -40 20
-40 11 0 15 -7 13 -22 -2 -18 -9 -22 -28 -20 -21 2 -26 -3 -28 -25 -3 -34 -12
-44 -12 -13 0 13 -7 31 -16 41 -8 9 -15 25 -15 35 0 11 1 40 1 67 0 26 5 47
10 47 5 0 12 9 15 21 l7 21 15 -21 c8 -12 19 -21 25 -21 6 0 16 -7 23 -17 20
-26 46 -10 39 25 -5 26 -2 31 27 41 17 6 47 11 65 11 28 0 33 -4 39 -30 4 -16
10 -30 15 -30 4 0 6 8 3 18 -2 10 5 28 16 41 25 28 27 59 6 68 -13 4 -15 15
-9 52 3 25 12 51 18 56 7 6 16 22 20 38 3 15 12 28 19 28 58 6 62 4 74 -31 6
-19 12 -27 12 -17 1 9 6 17 12 17 6 0 8 8 4 20 -3 10 -1 37 6 59 10 35 14 39
31 30 24 -13 25 -12 30 31 3 30 0 35 -19 38 -22 3 -33 32 -13 32 6 0 10 11 10
25 0 27 18 33 38 13 9 -9 15 -9 24 0 16 16 57 15 64 -2 7 -17 54 -18 54 0 0 7
9 16 21 19 16 5 20 14 17 43 -4 45 -23 53 -31 12 -4 -18 -13 -30 -22 -30 -8 0
-15 -4 -15 -10 0 -5 -4 -10 -9 -10 -8 0 -18 21 -36 75 -6 19 -7 19 -25 -5 -18
-24 -19 -24 -39 -6 -12 11 -21 29 -22 40 -1 21 -14 -18 -26 -75 -4 -20 -13
-28 -36 -33 -32 -7 -49 6 -40 31 4 9 -5 13 -28 13 -28 1 -31 3 -19 13 8 7 15
19 15 27 0 8 15 20 34 26 20 6 38 21 42 33 9 24 29 27 48 9 10 -11 16 -8 32
11 15 19 26 22 52 18 l32 -5 -3 40 c-3 26 1 45 12 57 21 23 31 76 17 85 -6 4
-9 12 -6 17 8 11 52 12 57 1 5 -13 62 -22 77 -13 10 7 10 12 0 28 -10 17 -7
29 27 83 l38 62 -22 18 c-27 22 -28 30 -2 30 11 0 20 4 20 9 0 5 18 11 40 15
23 3 43 13 45 21 3 8 7 22 10 30 3 10 10 12 22 7 10 -5 35 -16 55 -25z m-251
-57 c15 -8 19 -22 19 -60 0 -44 -3 -50 -20 -50 -11 0 -23 -7 -26 -15 -4 -8
-13 -15 -21 -15 -11 0 -13 5 -8 18 14 31 17 79 6 86 -6 4 -11 16 -11 27 0 21
29 26 61 9z m-111 -15 c0 -8 -4 -15 -10 -15 -5 0 -10 7 -10 15 0 8 5 15 10 15
6 0 10 -7 10 -15z m-80 -239 c0 -8 -7 -16 -15 -20 -17 -6 -18 -4 -9 18 8 20
24 21 24 2z m-20 -69 c0 -16 -31 -47 -47 -47 -16 0 -17 43 -2 71 10 20 11 20
30 3 10 -9 19 -22 19 -27z m-75 -57 c-6 -9 -55 0 -55 9 0 16 13 19 36 9 13 -6
21 -14 19 -18z m1365 -26 c0 -8 -5 -12 -10 -9 -6 4 -8 11 -5 16 9 14 15 11 15
-7z m-1452 -200 c22 -30 32 -56 32 -80 0 -44 -21 -41 -34 4 -7 25 -14 32 -35
32 -16 0 -31 8 -39 21 -12 18 -10 24 10 44 13 13 25 23 28 23 3 1 20 -19 38
-44z m-185 -101 c-4 -10 -9 -11 -16 -4 -5 5 -7 18 -3 28 6 14 9 15 16 4 4 -8
6 -21 3 -28z m114 -17 c-3 -7 -15 -16 -26 -19 -17 -4 -21 -1 -21 22 0 33 43
58 48 28 2 -10 1 -24 -1 -31z m-367 -445 c0 -12 -21 -19 -37 -13 -22 8 -14 22
12 22 14 0 25 -4 25 -9z m156 -805 c8 -8 14 -25 13 -38 l0 -23 -11 23 c-6 12
-17 22 -25 22 -7 0 -13 7 -13 15 0 19 17 19 36 1z m581 -177 c-3 -11 0 -19 8
-19 8 0 11 -9 8 -25 -4 -20 -13 -25 -48 -31 -51 -7 -77 -3 -82 13 -8 23 89 97
110 85 5 -2 7 -13 4 -23z m3241 -66 c-3 -30 -24 -43 -25 -16 -2 27 5 43 17 43
6 0 10 -12 8 -27z m-3888 -113 c0 -13 -7 -20 -19 -20 -41 0 -29 28 17 39 1 1
2 -8 2 -19z m-677 -51 c-17 -17 -37 -1 -22 17 8 10 15 12 23 4 7 -7 7 -13 -1
-21z m117 -8 c0 -35 14 -46 55 -46 28 0 30 -3 32 -37 2 -28 -2 -38 -12 -38 -8
0 -15 9 -15 20 0 11 -7 23 -15 26 -22 9 -47 -15 -40 -37 4 -11 3 -28 0 -40 -5
-16 -10 -18 -21 -9 -9 9 -12 25 -7 56 5 38 2 48 -16 65 -16 15 -19 24 -11 39
9 17 24 27 43 29 4 1 7 -12 7 -28z m-270 -21 c0 -5 -4 -10 -10 -10 -5 0 -10 5
-10 10 0 6 5 10 10 10 6 0 10 -4 10 -10z m108 -1 c-2 -6 -8 -10 -13 -10 -5 0
-11 4 -13 10 -2 6 4 11 13 11 9 0 15 -5 13 -11z m1923 -52 c-8 -8 -11 -3 -11
19 1 25 2 27 11 11 8 -14 8 -22 0 -30z m857 15 c2 -13 -3 -25 -13 -28 -23 -9
-38 10 -30 36 9 27 39 22 43 -8z m-2702 -49 c-10 -10 -19 5 -10 18 6 11 8 11
12 0 2 -7 1 -15 -2 -18z m-28 -25 c2 -9 -5 -19 -17 -23 -15 -4 -21 -15 -21
-36 0 -26 -3 -30 -22 -27 -23 3 -40 48 -19 48 6 0 11 13 11 29 0 26 3 29 32
27 22 -1 34 -7 36 -18z m-118 -13 c0 -25 -23 -35 -35 -15 -10 16 2 40 20 40 9
0 15 -9 15 -25z m4070 -35 c0 -12 -6 -17 -17 -15 -10 2 -21 4 -25 4 -5 1 -8
15 -8 31 0 30 0 30 25 14 14 -9 25 -24 25 -34z m-2889 -57 c-8 -14 -10 -15
-11 -3 0 13 -1 13 -10 0 -9 -13 -11 -13 -20 0 -6 10 -5 17 6 23 8 5 20 21 27
35 l11 27 4 -32 c2 -18 -1 -41 -7 -50z m2131 -40 c1 -10 3 -31 4 -48 2 -16 6
-51 10 -76 4 -30 2 -49 -5 -53 -11 -7 -73 23 -108 52 -29 26 -40 67 -19 75 9
4 16 13 16 22 0 8 1 15 3 15 1 0 20 7 42 15 52 18 55 18 57 -2z m588 -63 c11
-7 7 -10 -18 -10 -20 0 -31 4 -27 10 8 13 26 13 45 0z m-2653 -26 c3 -8 -1
-22 -9 -30 -12 -12 -16 -12 -33 1 -20 15 -20 15 -1 30 25 19 35 19 43 -1z
m-1397 -13 c-1 -17 -17 -29 -29 -21 -19 11 -6 41 14 34 8 -3 15 -9 15 -13z
m1520 -40 c0 -5 -7 -14 -15 -21 -18 -15 -42 1 -31 19 8 13 46 15 46 2z m-1530
-37 c0 -8 -5 -12 -10 -9 -6 4 -8 11 -5 16 9 14 15 11 15 -7z m1479 -16 c7 -16
5 -26 -5 -34 -23 -18 -16 -44 16 -58 23 -9 27 -15 18 -24 -16 -16 -39 -15 -76
4 -41 20 -45 28 -38 70 6 28 11 34 31 34 16 0 25 6 25 15 0 23 20 18 29 -7z
m2555 -2 c35 -29 31 -58 -9 -69 -17 -5 -38 -13 -47 -18 -10 -5 -27 -9 -37 -9
-11 0 -23 -4 -26 -10 -11 -18 -25 -11 -25 13 0 25 82 117 104 117 7 0 25 -11
40 -24z m-954 -66 c0 -5 -9 -10 -21 -10 -11 0 -17 5 -14 10 3 6 13 10 21 10 8
0 14 -4 14 -10z m1918 -54 c-17 -31 -34 -2 -19 31 13 26 14 27 21 8 4 -11 3
-28 -2 -39z m-1278 -26 c0 -5 -7 -10 -15 -10 -8 0 -15 5 -15 10 0 6 7 10 15
10 8 0 15 -4 15 -10z m-2351 -26 c3 -3 -3 -12 -13 -22 -16 -16 -18 -16 -31 2
-8 10 -12 23 -9 28 5 8 42 2 53 -8z m2421 -14 c0 -5 -5 -10 -11 -10 -5 0 -7 5
-4 10 3 6 8 10 11 10 2 0 4 -4 4 -10z m-2382 -49 c28 -24 28 -38 1 -46 -25 -8
-27 -6 -35 33 -7 36 1 40 34 13z m-38 -67 c0 -21 -24 -94 -31 -94 -5 0 -9 5
-9 12 0 6 -7 20 -17 30 -14 16 -14 18 -1 18 9 0 18 9 21 20 4 17 37 30 37 14z
m140 -44 c0 -5 -2 -10 -4 -10 -3 0 -8 5 -11 10 -3 6 -1 10 4 10 6 0 11 -4 11
-10z m416 -45 c-19 -14 -36 -12 -36 6 0 5 12 9 28 9 26 -1 26 -1 8 -15z m3104
5 c0 -5 -5 -10 -11 -10 -5 0 -7 5 -4 10 3 6 8 10 11 10 2 0 4 -4 4 -10z
m-3560 -40 c0 -5 -2 -10 -4 -10 -3 0 -8 5 -11 10 -3 6 -1 10 4 10 6 0 11 -4
11 -10z m50 -39 c0 -14 -18 -23 -30 -16 -6 4 -8 11 -5 16 8 12 35 12 35 0z
m67 -153 c-3 -8 -6 -5 -6 6 -1 11 2 17 5 13 3 -3 4 -12 1 -19z m-77 -8 c0 -5
-6 -10 -14 -10 -8 0 -16 -6 -19 -12 -2 -7 -8 -10 -12 -6 -13 12 4 38 25 38 11
0 20 -4 20 -10z m385 -200 c0 -19 -35 -26 -46 -9 -4 7 -5 17 -2 22 8 14 48 3
48 -13z m-705 -232 c0 -16 -3 -19 -11 -11 -6 6 -8 16 -5 22 11 17 16 13 16
-11z m-105 -76 c14 17 19 18 26 7 12 -19 11 -69 -1 -69 -5 0 -13 -11 -16 -26
-10 -38 -49 -30 -49 10 -1 33 -23 47 -37 22 -13 -23 -25 -20 -59 17 l-30 32
41 6 c22 3 46 11 53 18 9 10 16 7 33 -12 l21 -25 18 20z m35 -134 c0 -7 -4
-19 -9 -26 -7 -11 -10 -10 -15 3 -10 26 -7 35 9 35 8 0 15 -6 15 -12z m397
-164 c-9 -9 -28 6 -21 18 4 6 10 6 17 -1 6 -6 8 -13 4 -17z m363 -359 c0 -8
-4 -15 -10 -15 -5 0 -10 7 -10 15 0 8 5 15 10 15 6 0 10 -7 10 -15z m-26 -44
c20 -22 10 -32 -21 -20 -23 8 -29 20 -16 32 10 11 19 8 37 -12z m986 -477 c0
-8 -7 -14 -15 -14 -15 0 -21 21 -9 33 10 9 24 -2 24 -19z m-560 -108 c0 -11
-19 -15 -25 -6 -3 5 1 10 9 10 9 0 16 -2 16 -4z m80 -22 c0 -14 -12 -19 -23
-8 -9 9 4 35 14 28 5 -3 9 -12 9 -20z m640 -234 c0 -5 -4 -10 -10 -10 -5 0
-10 5 -10 10 0 6 5 10 10 10 6 0 10 -4 10 -10z m-10 -70 c0 -5 -4 -10 -10 -10
-5 0 -10 5 -10 10 0 6 5 10 10 10 6 0 10 -4 10 -10z m2741 -192 c1 -7 1 -16 0
-20 0 -4 9 -10 21 -14 20 -6 19 -7 -11 -20 -38 -16 -51 -11 -51 17 0 10 -5 19
-11 19 -8 0 -8 5 1 15 15 18 50 20 51 3z m-2944 -140 c-3 -7 -5 -2 -5 12 0 14
2 19 5 13 2 -7 2 -19 0 -25z m-684 -55 c-24 -34 -57 -44 -51 -16 2 10 10 17
16 15 7 -1 17 10 23 25 7 20 13 23 21 15 9 -9 7 -19 -9 -39z m3785 -8 c7 -13
14 -14 36 -5 31 11 70 4 61 -11 -4 -5 -22 -9 -41 -9 -24 0 -34 -5 -34 -15 0
-8 -4 -15 -10 -15 -5 0 -10 9 -10 20 0 11 -7 23 -15 26 -8 4 -15 10 -15 15 0
15 18 10 28 -6z m-50 -15 c-14 -22 -24 -19 -15 5 4 8 11 15 17 15 6 0 6 -7 -2
-20z m-242 -59 c3 -17 1 -31 -5 -31 -13 0 -18 19 -13 48 6 29 12 23 18 -17z
m230 -3 c-2 -14 -9 -21 -17 -18 -8 2 -33 4 -57 4 -38 0 -48 -5 -83 -43 -23
-25 -46 -41 -54 -38 -18 8 -8 45 16 58 11 5 19 18 19 29 0 18 6 19 80 15 46
-3 82 0 85 5 10 17 15 11 11 -12z m124 -88 c0 -5 -4 -10 -10 -10 -5 0 -10 5
-10 10 0 6 5 10 10 10 6 0 10 -4 10 -10z"/>
<path d="M2894 7036 c5 -22 3 -26 -14 -26 -27 0 -37 -27 -17 -47 14 -14 16
-13 27 8 7 12 21 32 32 43 23 25 19 40 -12 44 -20 3 -22 1 -16 -22z"/>
<path d="M2980 7030 c0 -5 4 -10 9 -10 6 0 13 5 16 10 3 6 -1 10 -9 10 -9 0
-16 -4 -16 -10z"/>
<path d="M3468 6753 c7 -3 16 -2 19 1 4 3 -2 6 -13 5 -11 0 -14 -3 -6 -6z"/>
<path d="M2660 6711 c0 -28 17 -35 29 -12 8 15 7 20 -5 25 -23 9 -24 8 -24
-13z"/>
<path d="M3791 6464 c0 -11 3 -14 6 -6 3 7 2 16 -1 19 -3 4 -6 -2 -5 -13z"/>
<path d="M3952 6365 c0 -16 2 -22 5 -12 2 9 2 23 0 30 -3 6 -5 -1 -5 -18z"/>
<path d="M2580 6355 c0 -8 5 -15 10 -15 6 0 10 7 10 15 0 8 -4 15 -10 15 -5 0
-10 -7 -10 -15z"/>
<path d="M2547 6305 c-4 -8 -2 -17 3 -20 6 -4 10 -4 10 -1 0 2 3 11 6 20 3 9
2 16 -4 16 -5 0 -12 -7 -15 -15z"/>
<path d="M2628 6298 c-2 -13 -10 -23 -18 -24 -44 -3 -70 -17 -70 -38 0 -31 7
-35 38 -27 17 5 28 15 30 29 2 12 9 22 17 22 11 0 24 28 25 53 0 18 -19 5 -22
-15z"/>
<path d="M2492 6278 c3 -7 13 -15 22 -16 12 -3 17 1 14 10 -3 7 -13 15 -22 16
-12 3 -17 -1 -14 -10z"/>
<path d="M4622 6248 c-18 -18 3 -46 32 -41 32 7 41 39 12 47 -29 8 -30 8 -44
-6z"/>
<path d="M4765 6234 c-35 -32 -28 -49 23 -50 48 -2 56 5 43 39 -14 35 -36 39
-66 11z"/>
<path d="M2467 6220 c-4 -14 -7 -41 -5 -60 3 -33 1 -35 -29 -38 -41 -4 -44
-22 -4 -22 17 0 31 -6 35 -16 8 -21 25 -8 19 15 -3 11 4 27 17 39 22 20 22 20
1 27 -14 4 -21 16 -23 43 -3 34 -4 35 -11 12z"/>
<path d="M5140 6085 c-14 -16 -5 -35 16 -35 8 0 14 2 14 4 0 2 3 11 6 19 7 20
-22 29 -36 12z"/>
<path d="M2547 6046 c-6 -16 2 -28 14 -20 12 7 11 34 0 34 -5 0 -11 -6 -14
-14z"/>
<path d="M2342 6019 c2 -19 8 -33 13 -31 15 3 12 55 -3 60 -10 3 -13 -5 -10
-29z"/>
<path d="M2420 6030 c0 -5 5 -10 10 -10 6 0 10 5 10 10 0 6 -4 10 -10 10 -5 0
-10 -4 -10 -10z"/>
<path d="M2190 5910 c0 -5 5 -10 10 -10 6 0 10 5 10 10 0 6 -4 10 -10 10 -5 0
-10 -4 -10 -10z"/>
<path d="M2145 5870 c-3 -5 -1 -10 4 -10 6 0 11 5 11 10 0 6 -2 10 -4 10 -3 0
-8 -4 -11 -10z"/>
<path d="M2230 5824 c0 -8 5 -12 10 -9 6 3 10 10 10 16 0 5 -4 9 -10 9 -5 0
-10 -7 -10 -16z"/>
<path d="M5311 5784 c0 -11 3 -14 6 -6 3 7 2 16 -1 19 -3 4 -6 -2 -5 -13z"/>
<path d="M5563 5620 c-16 -7 -20 -14 -16 -31 6 -22 7 -22 14 -3 7 18 8 17 8
-3 1 -13 5 -23 10 -23 5 0 12 -10 14 -22 4 -22 4 -22 6 -1 1 14 11 25 31 32
39 13 38 29 -5 47 -19 7 -36 14 -37 13 -2 0 -13 -4 -25 -9z"/>
<path d="M5750 5544 c0 -8 5 -12 10 -9 6 3 10 10 10 16 0 5 -4 9 -10 9 -5 0
-10 -7 -10 -16z"/>
<path d="M2665 5421 c-3 -5 -1 -12 5 -16 5 -3 10 1 10 9 0 18 -6 21 -15 7z"/>
<path d="M2905 5241 c-3 -5 -1 -12 5 -16 5 -3 10 1 10 9 0 18 -6 21 -15 7z"/>
<path d="M3105 5110 c-3 -5 1 -10 10 -10 9 0 13 5 10 10 -3 6 -8 10 -10 10 -2
0 -7 -4 -10 -10z"/>
<path d="M3345 4940 c-3 -5 -1 -10 4 -10 6 0 11 5 11 10 0 6 -2 10 -4 10 -3 0
-8 -4 -11 -10z"/>
<path d="M3305 4910 c-3 -5 1 -10 9 -10 9 0 16 5 16 10 0 6 -4 10 -9 10 -6 0
-13 -4 -16 -10z"/>
<path d="M3391 4754 c0 -11 3 -14 6 -6 3 7 2 16 -1 19 -3 4 -6 -2 -5 -13z"/>
<path d="M3912 4707 c-7 -8 -6 -17 3 -30 11 -16 13 -15 17 13 5 32 -3 38 -20
17z"/>
<path d="M3250 4224 c0 -8 5 -12 10 -9 6 3 10 10 10 16 0 5 -4 9 -10 9 -5 0
-10 -7 -10 -16z"/>
<path d="M5780 3986 c0 -16 28 -42 36 -33 8 7 -14 47 -26 47 -6 0 -10 -6 -10
-14z"/>
<path d="M4415 3898 c-5 -18 -10 -27 -12 -20 -3 6 -9 10 -14 6 -13 -8 19 -64
36 -64 9 0 15 10 16 23 4 71 -14 109 -26 55z"/>
<path d="M3950 3899 c0 -11 5 -17 10 -14 6 3 10 13 10 21 0 8 -4 14 -10 14 -5
0 -10 -9 -10 -21z"/>
<path d="M4152 3764 c-8 -9 -10 -20 -4 -30 8 -14 10 -12 16 11 8 33 5 38 -12
19z"/>
<path d="M3072 3620 c0 -14 2 -19 5 -12 2 6 2 18 0 25 -3 6 -5 1 -5 -13z"/>
<path d="M3111 3624 c0 -11 3 -14 6 -6 3 7 2 16 -1 19 -3 4 -6 -2 -5 -13z"/>
<path d="M3071 3578 c0 -9 -7 -19 -13 -21 -10 -4 -9 -8 2 -16 17 -12 25 6 17
37 -4 15 -5 15 -6 0z"/>
<path d="M4432 3540 c0 -14 2 -19 5 -12 2 6 2 18 0 25 -3 6 -5 1 -5 -13z"/>
<path d="M5860 3550 c0 -5 5 -10 10 -10 6 0 10 5 10 10 0 6 -4 10 -10 10 -5 0
-10 -4 -10 -10z"/>
<path d="M2980 3120 c0 -5 10 -10 23 -10 18 0 19 2 7 10 -19 13 -30 13 -30 0z"/>
<path d="M3151 3044 c0 -11 3 -14 6 -6 3 7 2 16 -1 19 -3 4 -6 -2 -5 -13z"/>
<path d="M2942 2944 c4 -21 22 -23 26 -1 2 10 -3 17 -13 17 -10 0 -15 -6 -13
-16z"/>
<path d="M2941 2886 c-15 -18 -4 -26 34 -26 24 0 35 -6 43 -24 8 -18 16 -23
32 -19 22 6 22 6 2 25 -11 11 -38 28 -60 38 -33 15 -43 16 -51 6z"/>
<path d="M3790 2693 c-1 -29 -3 -59 -4 -65 -2 -21 28 -15 32 6 2 11 0 16 -7
12 -6 -4 -11 13 -14 46 l-3 53 -4 -52z"/>
<path d="M2822 2714 c1 -9 9 -19 16 -22 9 -3 13 2 10 14 -1 9 -9 19 -16 22 -9
3 -13 -2 -10 -14z"/>
<path d="M2865 2639 c-4 -6 -3 -15 3 -21 6 -6 11 -4 15 6 7 18 -9 31 -18 15z"/>
<path d="M3072 2535 c0 -16 2 -22 5 -12 2 9 2 23 0 30 -3 6 -5 -1 -5 -18z"/>
<path d="M3790 2545 c0 -8 5 -15 10 -15 6 0 10 7 10 15 0 8 -4 15 -10 15 -5 0
-10 -7 -10 -15z"/>
<path d="M3460 2348 c-56 -16 -66 -29 -40 -50 12 -10 30 -18 39 -18 9 0 25 -9
34 -21 l18 -20 33 29 c19 16 40 32 46 34 9 3 4 13 -12 31 -27 29 -56 33 -118
15z"/>
<path d="M2227 4528 c-9 -31 -9 -38 2 -38 12 0 20 35 11 50 -5 8 -9 4 -13 -12z"/>
<path d="M2020 4450 c-7 -4 -20 -5 -29 -2 -31 11 10 -28 49 -47 27 -13 39 -15
47 -6 8 9 5 18 -10 36 -25 27 -37 31 -57 19z"/>
<path d="M1752 4415 c0 -16 2 -22 5 -12 2 9 2 23 0 30 -3 6 -5 -1 -5 -18z"/>
<path d="M1628 4380 c2 -16 6 -30 8 -30 2 0 4 14 4 30 0 17 -4 30 -8 30 -5 0
-7 -13 -4 -30z"/>
<path d="M1177 4329 c-29 -17 -15 -89 18 -89 11 0 15 11 15 38 0 48 -10 63
-33 51z"/>
<path d="M1380 4321 c0 -5 -8 -17 -17 -27 -18 -18 -25 -52 -11 -60 4 -3 8 -1
8 5 0 6 11 13 24 17 29 7 53 53 34 65 -17 12 -38 11 -38 0z"/>
<path d="M1506 4241 c-4 -5 -2 -12 3 -15 5 -4 12 -2 15 3 4 5 2 12 -3 15 -5 4
-12 2 -15 -3z"/>
<path d="M2260 4231 c0 -12 6 -21 16 -21 9 0 14 7 12 17 -5 25 -28 28 -28 4z"/>
<path d="M1348 4176 c-3 -14 0 -30 8 -36 18 -16 23 1 9 34 l-12 29 -5 -27z"/>
<path d="M1220 4146 c0 -37 3 -43 18 -39 14 3 17 12 14 44 -6 57 -32 53 -32
-5z"/>
<path d="M1661 4145 c-5 -5 -5 -21 0 -34 l9 -24 30 29 c16 16 30 32 30 37 0
11 -60 4 -69 -8z"/>
<path d="M1907 4073 c-3 -16 -1 -32 4 -37 6 -6 9 -6 9 2 0 7 6 12 14 12 24 0
29 20 10 35 -27 20 -31 19 -37 -12z"/>
<path d="M1575 4079 c-10 -15 1 -23 20 -15 9 3 13 10 10 16 -8 13 -22 13 -30
-1z"/>
<path d="M1552 4055 c0 -16 2 -22 5 -12 2 9 2 23 0 30 -3 6 -5 -1 -5 -18z"/>
<path d="M1235 4046 c-19 -14 -19 -15 10 -25 17 -6 38 -16 47 -21 10 -6 29
-10 43 -10 36 0 82 -26 90 -50 8 -26 45 -61 57 -54 17 11 7 -19 -12 -34 -19
-15 -20 -21 -9 -52 6 -19 20 -44 30 -56 11 -11 19 -33 20 -50 0 -16 3 -23 6
-16 2 6 13 12 24 12 22 0 25 20 7 38 -10 10 -10 17 0 32 17 28 15 70 -5 92
-15 17 -15 20 7 43 28 30 21 60 -12 51 -32 -8 -98 23 -98 47 0 10 -5 15 -11
12 -20 -13 -58 4 -61 28 -3 19 -10 22 -58 25 -37 2 -62 -2 -75 -12z"/>
<path d="M1870 4030 c0 -5 5 -10 10 -10 6 0 10 5 10 10 0 6 -4 10 -10 10 -5 0
-10 -4 -10 -10z"/>
<path d="M1048 3883 c-32 -8 -21 -30 12 -25 17 2 29 9 27 15 -4 13 -16 16 -39
10z"/>
<path d="M1223 3833 c-8 -20 8 -35 32 -29 18 5 25 0 36 -25 13 -33 41 -64 73
-81 17 -9 18 -7 11 34 -4 26 -17 52 -31 66 -13 13 -24 27 -24 31 0 15 -92 18
-97 4z"/>
<path d="M1219 3679 c-5 -3 0 -16 11 -29 11 -13 23 -35 27 -49 3 -14 9 -30 13
-36 16 -23 18 -44 5 -69 -8 -14 -17 -78 -21 -144 -6 -108 -5 -123 15 -166 23
-52 27 -91 11 -101 -14 -9 -12 -17 11 -44 17 -21 22 -22 30 -10 10 16 51 143
54 168 1 9 4 23 7 31 20 57 28 92 28 127 0 24 6 46 15 53 20 16 19 40 -2 70
-10 14 -25 45 -33 70 -8 25 -19 44 -25 43 -16 -2 -35 18 -56 58 -16 33 -23 38
-50 36 -17 -1 -35 -5 -40 -8z"/>
<path d="M2406 3683 c-7 -7 13 -33 25 -33 5 0 9 6 9 14 0 15 -24 28 -34 19z"/>
<path d="M1548 3633 c-2 -5 -3 -39 -3 -78 0 -57 3 -69 15 -66 8 2 27 6 42 9
23 4 26 7 17 23 -5 10 -13 18 -17 18 -40 -6 -45 1 -39 51 3 28 2 50 -3 50 -5
0 -10 -3 -12 -7z"/>
<path d="M1666 3501 c-4 -7 -5 -15 -2 -18 9 -9 19 4 14 18 -4 11 -6 11 -12 0z"/>
<path d="M660 3480 c-13 -9 -13 -11 0 -20 15 -10 25 0 18 20 -2 6 -8 6 -18 0z"/>
<path d="M1541 3452 c-6 -12 -11 -28 -11 -36 0 -9 -6 -15 -12 -13 -15 2 -17
-82 -5 -145 7 -35 11 -38 40 -38 49 0 62 12 46 41 -11 21 -14 22 -17 6 -7 -34
-27 -11 -24 29 5 74 8 99 16 116 5 10 2 25 -7 39 -15 21 -15 21 -26 1z"/>
<path d="M1672 3440 c0 -14 2 -19 5 -12 2 6 2 18 0 25 -3 6 -5 1 -5 -13z"/>
<path d="M2307 3453 c-13 -12 -7 -43 8 -43 8 0 15 6 15 13 0 18 -15 38 -23 30z"/>
<path d="M2435 3451 c-11 -10 -4 -32 15 -51 27 -27 42 -29 45 -5 1 11 6 27 9
36 6 13 0 18 -29 21 -19 2 -38 2 -40 -1z"/>
<path d="M1695 3390 c3 -5 11 -10 16 -10 6 0 7 5 4 10 -3 6 -11 10 -16 10 -6
0 -7 -4 -4 -10z"/>
<path d="M2344 3378 c3 -13 6 -27 6 -31 0 -5 5 -7 12 -5 16 6 19 41 5 50 -21
14 -29 9 -23 -14z"/>
<path d="M930 3310 c0 -5 9 -10 20 -10 11 0 20 5 20 10 0 6 -9 10 -20 10 -11
0 -20 -4 -20 -10z"/>
<path d="M2071 3264 c0 -11 3 -14 6 -6 3 7 2 16 -1 19 -3 4 -6 -2 -5 -13z"/>
<path d="M1750 3166 c0 -19 3 -37 8 -40 4 -2 6 13 4 35 -5 48 -12 51 -12 5z"/>
<path d="M1935 3190 c-3 -5 -2 -10 4 -10 5 0 12 -10 14 -22 3 -17 5 -14 6 10
1 31 -11 43 -24 22z"/>
<path d="M929 3154 c-11 -14 -10 -18 5 -30 18 -13 18 -16 3 -54 -21 -55 -36
-43 227 -182 31 -16 31 -16 64 15 45 43 42 69 -12 107 -26 17 -46 39 -48 53
-2 16 -11 23 -33 25 -16 2 -35 9 -40 16 -6 7 -21 16 -34 21 -23 7 -23 6 -17
-29 6 -29 4 -36 -9 -36 -13 0 -15 6 -10 30 4 18 3 30 -4 30 -5 0 -22 11 -37
25 -32 29 -37 30 -55 9z"/>
<path d="M1547 3133 c-14 -13 -6 -33 12 -33 12 0 23 -9 27 -22 7 -22 8 -22 15
7 5 16 5 32 1 36 -12 12 -48 20 -55 12z"/>
<path d="M0 2854 c0 -77 0 -77 19 -53 22 29 41 64 41 76 0 5 -13 19 -30 31
l-30 23 0 -77z"/>
<path d="M992 2807 c-6 -7 -9 -22 -6 -33 4 -16 12 -20 29 -17 21 5 68 -18 90
-43 6 -6 20 -14 33 -17 37 -9 26 18 -23 59 -25 20 -45 43 -45 50 0 18 -64 19
-78 1z"/>
<path d="M6990 1215 c-1 -5 -2 -17 -1 -27 1 -9 -7 -23 -19 -31 -19 -13 -19
-15 -4 -21 19 -7 54 1 54 13 0 4 -4 11 -9 17 -5 5 -11 20 -14 34 -2 14 -5 21
-7 15z"/>
<path d="M3390 1066 c0 -9 5 -16 10 -16 6 0 10 4 10 9 0 6 -4 13 -10 16 -5 3
-10 -1 -10 -9z"/>
<path d="M7060 1056 c0 -9 5 -16 10 -16 6 0 10 4 10 9 0 6 -4 13 -10 16 -5 3
-10 -1 -10 -9z"/>
<path d="M3417 1003 c-15 -15 -21 -16 -38 -5 -19 12 -39 9 -39 -7 0 -5 19 -12
42 -17 33 -7 44 -15 49 -34 6 -23 7 -23 8 -3 1 14 8 23 24 25 26 4 39 48 14
48 -9 0 -21 2 -29 5 -7 3 -21 -3 -31 -12z"/>
<path d="M3410 944 c0 -8 -4 -12 -10 -9 -5 3 -10 -3 -10 -14 0 -14 5 -19 15
-15 13 6 22 54 10 54 -3 0 -5 -7 -5 -16z"/>
<path d="M6902 759 c2 -6 8 -10 13 -10 5 0 11 4 13 10 2 6 -4 11 -13 11 -9 0
-15 -5 -13 -11z"/>
<path d="M7100 751 c0 -6 5 -13 10 -16 6 -3 10 1 10 9 0 9 -4 16 -10 16 -5 0
-10 -4 -10 -9z"/>
<path d="M6986 623 c-7 -23 2 -73 13 -73 4 0 5 17 3 38 -5 53 -8 60 -16 35z"/>
<path d="M6862 601 c-10 -6 -10 -10 2 -20 10 -9 16 -9 21 -1 10 16 -7 31 -23
21z"/>
<path d="M1012 568 c-7 -7 -12 -25 -12 -41 0 -23 -4 -28 -22 -27 -40 4 -45 1
-58 -30 -15 -35 -42 -39 -64 -9 -19 27 -52 21 -49 -9 3 -27 -13 -29 -22 -3 -6
21 -31 34 -47 25 -6 -4 -8 -26 -5 -50 3 -32 1 -44 -9 -44 -7 0 -17 7 -21 15
-5 8 -23 19 -41 24 -28 8 -34 6 -52 -16 -11 -14 -20 -21 -20 -16 0 6 -26 13
-57 16 -44 5 -61 2 -75 -9 -15 -15 -19 -14 -40 0 -12 9 -38 16 -56 16 -19 0
-56 12 -83 28 l-49 27 -23 -28 c-21 -26 -25 -27 -67 -19 -25 5 -49 11 -55 12
-19 6 -60 -21 -72 -47 -9 -19 -13 -83 -13 -205 l0 -178 90 0 c90 0 90 0 90 25
0 17 -8 29 -24 36 -29 14 -41 75 -20 100 8 8 14 32 14 52 0 20 5 39 10 42 5 3
10 2 10 -4 0 -5 13 -9 29 -9 17 1 39 -8 52 -21 l24 -22 9 21 c7 15 6 28 -2 41
-11 18 -10 19 18 17 16 -1 30 -6 30 -10 0 -4 7 -5 15 -2 15 6 28 -17 39 -69 4
-17 13 -27 24 -27 26 0 58 -25 44 -34 -20 -12 -13 -32 13 -44 16 -8 28 -23 31
-42 5 -25 11 -30 35 -30 16 0 29 5 29 10 0 6 -4 10 -10 10 -5 0 -10 14 -10 30
0 17 5 30 10 30 6 0 10 -4 10 -9 0 -5 14 -22 30 -38 17 -15 30 -34 30 -40 0
-10 38 -13 156 -13 l156 0 -26 31 c-14 17 -26 34 -26 39 0 5 -10 10 -22 12
-20 3 -23 8 -21 41 2 23 -2 37 -10 38 -70 5 -96 16 -90 39 7 25 18 25 43 0 20
-20 20 -20 20 15 0 29 4 36 25 41 14 3 31 4 39 1 8 -3 16 0 19 6 5 15 -6 49
-16 48 -24 -3 -26 1 -15 27 17 38 16 38 40 12 l21 -23 18 22 c28 34 49 17 49
-40 0 -37 4 -49 15 -49 8 0 15 5 15 10 0 6 9 10 20 10 16 0 20 -7 20 -34 0
-26 5 -36 20 -41 14 -4 20 -15 20 -35 0 -43 34 -59 64 -31 12 12 28 21 34 21
18 0 14 -47 -4 -54 -10 -4 -15 -16 -14 -33 4 -53 2 -56 -30 -50 -23 5 -28 3
-23 -8 4 -13 40 -15 219 -15 118 0 214 1 214 3 0 1 -6 20 -14 42 -10 31 -21
42 -45 49 -27 9 -32 16 -42 65 -12 56 -51 131 -69 131 -14 0 -58 50 -70 81 -6
15 -32 41 -56 59 -27 19 -53 49 -66 76 -24 52 -67 80 -97 64 -13 -7 -22 -7
-26 0 -8 14 -38 13 -53 -2z m-775 -230 c-2 -13 -4 -5 -4 17 -1 22 1 32 4 23 2
-10 2 -28 0 -40z m571 17 c2 -2 -8 -15 -21 -29 -30 -33 -51 -35 -41 -3 4 12 7
28 7 34 0 8 9 10 26 6 14 -3 27 -7 29 -8z m-178 -5 c13 -8 13 -10 -2 -10 -9 0
-20 5 -23 10 -8 13 5 13 25 0z m74 -75 c4 -10 -1 -15 -14 -15 -20 0 -26 11
-13 23 10 11 20 8 27 -8z m-604 -129 c0 -2 -7 -6 -15 -10 -8 -3 -15 -1 -15 4
0 6 7 10 15 10 8 0 15 -2 15 -4z"/>
<path d="M6591 544 c0 -11 3 -14 6 -6 3 7 2 16 -1 19 -3 4 -6 -2 -5 -13z"/>
<path d="M6340 307 c0 -21 12 -28 27 -16 19 16 16 29 -7 29 -11 0 -20 -6 -20
-13z"/>
<path d="M168 195 c-4 -21 -1 -25 18 -25 29 0 32 25 5 39 -16 9 -20 7 -23 -14z"/>
<path d="M6416 175 c4 -8 11 -15 16 -15 6 0 5 6 -2 15 -7 8 -14 15 -16 15 -2
0 -1 -7 2 -15z"/>
</g>
</svg>
